<svg width="529" height="456" viewBox="0 0 529 456" fill="none"
	xmlns="http://www.w3.org/2000/svg">
	<path d="M387.38 64.7041C386.688 66.3988 386.455 68.5298 385.274 69.7267C368.592 86.6412 351.764 103.412 335.019 120.266C332.547 122.754 330.861 122.897 328.102 120.161C313.507 105.689 296.087 95.3446 276.818 88.7684C253.419 80.7825 229.43 78.2154 204.571 82.3667C164.238 89.1023 132.445 108.952 108.181 141.475C95.879 157.966 88.1239 176.405 83.6117 196.471C79.5556 214.509 78.8374 232.622 81.8494 250.665C87.7289 285.885 104.047 315.528 131.168 339.094C148.248 353.936 167.751 364.485 189.45 370.123C206.202 374.476 223.354 376.463 241.038 374.511C263.651 372.016 284.636 365.453 303.851 353.611C312.492 348.285 320.395 341.692 328.273 335.234C331.287 332.763 332.949 332.73 335.623 335.436C351.967 351.977 368.348 368.484 384.971 384.743C388.215 387.916 387.785 389.862 384.852 392.452C382.332 394.677 379.944 397.053 377.445 399.79C375.874 401.159 374.356 402.099 372.272 403.487C366.15 408.407 360.592 412.879 355.035 417.35C354.516 417.381 353.996 417.412 352.839 417.751C350.668 419.456 349.134 420.853 347.599 422.25C347.101 422.292 346.602 422.333 345.501 422.641C344.282 423.498 343.666 424.09 343.051 424.681C342.357 424.845 341.663 425.008 340.322 425.464C338.901 426.591 338.128 427.427 337.356 428.262C336.961 428.188 336.567 428.114 335.541 428.288C334.113 429.284 333.317 430.031 332.52 430.778C332.101 430.717 331.683 430.655 330.62 430.88C327.543 432.673 325.11 434.181 322.676 435.69C322.277 435.594 321.877 435.499 320.802 435.603C319.292 436.544 318.459 437.286 317.625 438.028C309.359 440.585 301.075 443.091 292.829 445.71C264.129 454.826 234.731 457.143 204.913 454.262C174.485 451.323 145.736 442.587 118.893 427.845C90.5304 412.269 66.1936 391.869 46.6394 366.077C30.1757 344.362 17.8698 320.52 9.80877 294.282C1.54534 267.386 -1.14837 240.062 0.429106 212.225C1.54327 192.564 5.56184 173.437 11.9136 154.687C19.4493 132.442 29.9436 111.838 43.9082 93.076C59.3731 72.2986 77.6476 54.2778 99.1154 39.6316C121.023 24.6855 144.818 13.5223 170.495 7.27316C196.361 0.978245 222.595 -1.78367 249.499 1.21054C277.375 4.3129 303.813 11.4191 328.825 23.83C346.683 32.6908 363.491 43.2434 378.041 57.0803C379.048 58.0385 380.425 58.6093 382.01 59.9595C383.223 61.1437 384.056 61.7287 384.89 62.3137C384.89 62.3137 384.951 62.2564 384.93 62.6452C385.73 63.5996 386.551 64.1653 387.372 64.731C387.372 64.731 387.399 64.7061 387.38 64.7041Z" fill="#43B02A"/>
	<path d="M426.981 428.215C420.858 421.578 414.792 414.864 408.502 408.366C403.287 402.979 397.818 397.836 392.44 392.607C389.88 390.117 388.858 388.302 392.158 384.93C410.587 366.096 425.284 344.469 435.748 320.389C441.583 306.963 445.883 292.636 448.948 278.303C452.365 262.319 455.104 245.892 455.373 229.613C455.662 212.073 453.386 194.507 449.476 177.106C440.278 136.178 420.848 101.071 392.393 70.6164C391.172 69.31 390.699 67.3048 389.889 65.1519C403.046 51.7758 416.192 38.8727 429.339 25.9701C432.504 22.8639 435.671 19.7597 439.373 16.3221C440.397 15.8986 440.885 15.8077 441.373 15.7168C441.373 15.7168 441.416 15.608 441.451 15.9839C442.439 17.1134 443.393 17.867 444.346 18.6206C444.346 18.6206 444.49 18.662 444.564 19.0641C445.351 20.0079 446.064 20.5496 446.778 21.0912C446.778 21.0912 446.922 21.1533 447.027 21.6052C448.512 23.1831 449.892 24.3091 451.272 25.4351C451.272 25.4351 451.332 25.372 451.303 25.7957C452.046 26.8448 452.818 27.4703 453.589 28.0958C453.589 28.0958 453.65 27.9731 453.637 28.4063C455.302 30.5833 456.979 32.3272 458.657 34.071C459.328 35.0855 460 36.0999 460.958 37.7666C462.012 39.0178 462.78 39.6168 463.548 40.2159C463.548 40.2159 463.614 40.1399 463.585 40.5789C465.222 42.745 466.889 44.4721 468.556 46.1993C468.556 46.1993 468.531 46.229 468.55 46.6543C469.33 47.7518 470.092 48.4241 470.853 49.0964C470.853 49.0964 470.745 49.5839 470.897 50.196C472.628 52.6801 474.207 54.5521 475.785 56.4242C475.785 56.4242 475.666 56.9203 475.8 57.5509C477.536 60.0208 479.137 61.8601 480.739 63.6994C480.739 63.6994 480.687 64.2619 480.831 64.8945C482.538 67.37 484.101 69.2128 485.663 71.0556C485.663 71.0556 485.61 71.6216 485.734 72.2744C487.495 75.4921 489.132 78.0569 490.769 80.6217C490.873 81.3669 490.977 82.1121 491.465 83.4531C493.865 87.1536 495.88 90.2582 497.895 93.3629C497.895 93.3629 497.758 93.8499 497.886 94.4356C498.74 96.0205 499.465 97.0196 500.191 98.0188C500.242 98.5671 500.293 99.1155 500.535 100.383C501.401 102.103 502.075 103.104 502.749 104.104C502.819 104.645 502.89 105.187 503.084 106.538C504.64 109.986 506.073 112.624 507.505 115.263C507.752 116.691 507.998 118.119 508.595 120.265C510.26 123.922 511.574 126.86 512.889 129.797C512.868 130.371 512.848 130.944 512.958 132.308C513.808 134.469 514.527 135.84 515.246 137.211C515.23 137.78 515.214 138.349 515.343 139.71C516.186 141.88 516.884 143.258 517.583 144.636C517.66 145.556 517.738 146.475 517.893 148.23C518.603 150.079 519.236 151.092 519.868 152.105C520.012 153.781 520.156 155.457 520.354 158.044C521.084 160.747 521.76 162.54 522.436 164.333C522.55 166.026 522.664 167.72 522.831 170.328C523.571 173.03 524.258 174.818 524.945 176.605C525.058 178.702 525.172 180.8 525.321 183.912C526.061 188.701 526.765 192.474 527.468 196.247C527.564 199.971 527.659 203.694 527.794 208.527C527.892 222.376 527.951 235.117 528.01 247.857C527.703 251.57 527.397 255.283 526.849 259.785C526.264 264.121 525.919 267.668 525.575 271.216C525.309 273.309 525.044 275.402 524.518 278.251C523.877 280.918 523.495 282.829 523.114 284.739C522.905 286.053 522.696 287.366 522.238 289.436C521.539 292.472 521.089 294.751 520.64 297.03C520.422 298.339 520.204 299.647 519.712 301.667C518.984 304.283 518.53 306.188 518.077 308.092C517.877 308.625 517.678 309.159 517.224 310.331C516.537 312.469 516.104 313.97 515.671 315.47C515.417 316.356 515.163 317.241 514.569 318.645C513.909 320.391 513.59 321.62 513.271 322.848C513.042 323.752 512.813 324.656 512.247 326.164C511.511 328.329 511.111 329.89 510.712 331.451C510.505 331.959 510.299 332.468 509.682 333.471C505.908 342.129 502.544 350.294 499.181 358.458C498.832 359.05 498.483 359.641 497.769 360.807C494.376 367.385 491.35 373.387 488.323 379.389C488.323 379.389 487.92 379.678 487.547 380.014C484.356 384.95 481.538 389.549 478.721 394.149C478.583 394.307 478.444 394.465 477.892 395.002C476.875 396.555 476.272 397.731 475.67 398.907C475.67 398.907 475.797 398.893 475.362 398.885C474.498 399.758 474.07 400.637 473.642 401.517C473.642 401.517 473.283 401.94 472.9 402.309C471.914 403.868 471.311 405.058 470.709 406.248C470.709 406.248 470.853 406.24 470.402 406.207C469.502 407.08 469.052 407.986 468.602 408.892C467.73 409.793 466.858 410.695 465.595 412.081C464.688 413.395 464.171 414.225 463.655 415.055C463.655 415.055 463.613 415.048 463.223 415.183C461.422 417.254 460.011 419.191 458.6 421.128C458.6 421.128 458.699 421.138 458.282 421.181C457.368 422.03 456.872 422.838 456.376 423.645C455.491 424.58 454.607 425.516 453.356 426.991C452.303 428.592 451.616 429.654 450.928 430.715C450.928 430.715 451.091 430.76 450.638 430.662C449.626 431.446 449.067 432.328 448.508 433.21C448.508 433.21 448.66 433.253 448.212 433.162C447.201 433.946 446.639 434.822 446.076 435.697C446.076 435.697 446.223 435.734 445.777 435.653C444.771 436.444 444.21 437.315 443.649 438.187C443.649 438.187 443.79 438.218 443.331 438.146C442.127 438.91 441.382 439.745 440.637 440.58C440.637 440.58 440.179 440.369 439.851 440.061C438.626 439.175 437.73 438.597 436.834 438.018C436.834 438.018 436.768 438.167 436.794 437.733C436.007 436.72 435.193 436.142 434.379 435.563C434.379 435.563 434.312 435.709 434.337 435.275C433.548 434.262 432.734 433.683 431.92 433.104C431.92 433.104 431.853 433.25 431.878 432.816C431.089 431.803 430.275 431.224 429.462 430.645C429.462 430.645 429.395 430.791 429.42 430.357C428.631 429.344 427.817 428.766 427.003 428.187C427.003 428.187 426.942 428.23 426.981 428.215Z" fill="black"/>
	<path d="M306.106 223.485C306.601 255.644 292.894 279.918 266.133 295.681C251.57 304.259 235.172 308.156 217.345 305.239C197.766 302.035 181.581 293.412 168.483 279.135C159.5 269.344 153.831 257.409 151.035 244.279C145.995 220.613 151.074 198.958 165.66 180.049C177.134 165.175 192.013 154.596 211.25 151.742C218.019 150.737 224.939 149.144 231.652 149.649C255.573 151.447 275.326 161.215 290.087 180.911C299.566 193.559 304.308 207.561 306.106 223.485Z" fill="black"/>
</svg>
