<svg width="519" height="447" viewBox="0 0 519 447" fill="none"
	xmlns="http://www.w3.org/2000/svg">
	<path d="M380.212 63.5068C379.532 65.1701 379.303 67.2616 378.145 68.4364C361.771 85.0379 345.254 101.498 328.82 118.04C326.393 120.482 324.738 120.622 322.03 117.937C307.705 103.733 290.607 93.5803 271.695 87.1257C248.729 79.2876 225.184 76.768 200.785 80.8425C161.198 87.4534 129.994 106.936 106.18 138.857C94.1047 155.043 86.4932 173.141 82.0645 192.835C78.0834 210.54 77.3785 228.318 80.3348 246.026C86.1055 280.594 102.122 309.689 128.741 332.819C145.504 347.386 164.647 357.74 185.945 363.274C202.387 367.546 219.221 369.497 236.578 367.581C258.772 365.131 279.368 358.691 298.229 347.067C306.71 341.84 314.466 335.369 322.198 329.031C325.156 326.605 326.788 326.573 329.413 329.229C345.454 345.464 361.532 361.665 377.847 377.623C381.032 380.738 380.609 382.647 377.73 385.19C375.257 387.374 372.914 389.705 370.461 392.392C368.919 393.735 367.428 394.658 365.383 396.021C359.374 400.85 353.92 405.238 348.465 409.627C347.956 409.657 347.446 409.688 346.31 410.02C344.179 411.694 342.673 413.065 341.167 414.436C340.678 414.477 340.188 414.518 339.107 414.82C337.911 415.661 337.307 416.242 336.702 416.822C336.021 416.983 335.34 417.143 334.024 417.59C332.63 418.697 331.871 419.517 331.113 420.337C330.726 420.264 330.339 420.192 329.332 420.363C327.93 421.34 327.148 422.073 326.367 422.806C325.956 422.746 325.545 422.686 324.502 422.906C321.482 424.667 319.093 426.147 316.705 427.627C316.313 427.534 315.921 427.44 314.865 427.542C313.384 428.466 312.566 429.194 311.747 429.922C303.634 432.432 295.504 434.892 287.41 437.462C259.241 446.41 230.388 448.684 201.121 445.856C171.256 442.971 143.039 434.397 116.693 419.928C88.8551 404.64 64.9687 384.618 45.7764 359.303C29.6173 337.99 17.5391 314.589 9.62726 288.837C1.51674 262.438 -1.12712 235.62 0.421166 208.297C1.51471 189 5.45892 170.227 11.6931 151.825C19.0894 129.991 29.3895 109.768 43.0957 91.3537C58.2744 70.9607 76.2107 53.2734 97.2813 38.8982C118.783 24.2287 142.138 13.2721 167.34 7.13857C192.727 0.960143 218.476 -1.75067 244.882 1.18814C272.242 4.23309 298.191 11.2078 322.74 23.389C340.268 32.0859 356.765 42.4432 371.045 56.024C372.034 56.9645 373.385 57.5247 374.94 58.8499C376.132 60.0123 376.949 60.5864 377.767 61.1605C377.767 61.1605 377.827 61.1043 377.806 61.4859C378.592 62.4227 379.398 62.978 380.204 63.5332C380.204 63.5332 380.23 63.5087 380.212 63.5068Z" fill="white"/>
	<path d="M419.079 420.29C413.069 413.776 407.115 407.186 400.942 400.809C395.823 395.521 390.455 390.474 385.177 385.341C382.664 382.898 381.662 381.116 384.9 377.807C402.988 359.321 417.413 338.094 427.684 314.46C433.411 301.282 437.631 287.22 440.639 273.152C443.994 257.464 446.681 241.342 446.945 225.364C447.229 208.148 444.996 190.907 441.157 173.828C432.13 133.657 413.059 99.2006 385.131 69.3092C383.933 68.0269 383.469 66.0588 382.673 63.9458C395.586 50.8173 408.489 38.1529 421.393 25.4891C424.499 22.4403 427.608 19.3936 431.242 16.0196C432.247 15.604 432.726 15.5147 433.205 15.4255C433.205 15.4255 433.247 15.3187 433.281 15.6876C434.251 16.7963 435.187 17.5359 436.123 18.2755C436.123 18.2755 436.264 18.3162 436.336 18.7109C437.109 19.6372 437.809 20.1689 438.509 20.7005C438.509 20.7005 438.651 20.7614 438.754 21.2049C440.211 22.7536 441.566 23.8588 442.92 24.9639C442.92 24.9639 442.979 24.9021 442.951 25.3179C443.68 26.3476 444.437 26.9615 445.195 27.5755C445.195 27.5755 445.254 27.4551 445.242 27.8802C446.876 30.0169 448.522 31.7285 450.168 33.4401C450.827 34.4358 451.486 35.4315 452.427 37.0672C453.462 38.2953 454.215 38.8833 454.969 39.4712C454.969 39.4712 455.034 39.3967 455.005 39.8275C456.613 41.9535 458.249 43.6487 459.885 45.3439C459.885 45.3439 459.86 45.3731 459.878 45.7905C460.644 46.8678 461.392 47.5276 462.139 48.1874C462.139 48.1874 462.033 48.6659 462.182 49.2666C463.881 51.7048 465.431 53.5422 466.98 55.3796C466.98 55.3796 466.862 55.8665 466.995 56.4855C468.699 58.9097 470.27 60.7149 471.842 62.5202C471.842 62.5202 471.791 63.0723 471.933 63.6932C473.608 66.1229 475.141 67.9315 476.675 69.7402C476.675 69.7402 476.623 70.2958 476.745 70.9365C478.473 74.0946 480.08 76.612 481.686 79.1293C481.788 79.8608 481.89 80.5922 482.37 81.9084C484.725 85.5403 486.703 88.5875 488.681 91.6347C488.681 91.6347 488.546 92.1128 488.672 92.6876C489.51 94.2431 490.222 95.2238 490.934 96.2045C490.984 96.7427 491.034 97.2809 491.272 98.5254C492.122 100.213 492.783 101.195 493.444 102.177C493.514 102.709 493.583 103.24 493.774 104.566C495.301 107.95 496.707 110.54 498.113 113.129C498.355 114.531 498.597 115.932 499.182 118.039C500.816 121.628 502.107 124.512 503.397 127.395C503.377 127.958 503.357 128.52 503.465 129.859C504.299 131.98 505.005 133.326 505.71 134.671C505.695 135.23 505.679 135.789 505.806 137.124C506.633 139.254 507.318 140.606 508.004 141.959C508.08 142.862 508.156 143.764 508.308 145.487C509.006 147.301 509.626 148.295 510.247 149.289C510.388 150.935 510.529 152.58 510.724 155.119C511.441 157.772 512.104 159.532 512.768 161.292C512.88 162.954 512.992 164.616 513.155 167.176C513.881 169.828 514.555 171.582 515.23 173.337C515.341 175.395 515.452 177.453 515.599 180.509C516.326 185.209 517.016 188.912 517.707 192.615C517.8 196.27 517.894 199.924 518.026 204.667C518.122 218.261 518.18 230.765 518.238 243.27C517.937 246.914 517.636 250.559 517.099 254.977C516.524 259.233 516.186 262.715 515.848 266.197C515.588 268.251 515.327 270.306 514.811 273.102C514.181 275.719 513.807 277.594 513.432 279.47C513.228 280.759 513.023 282.048 512.573 284.08C511.887 287.06 511.446 289.297 511.004 291.533C510.791 292.818 510.577 294.102 510.094 296.084C509.379 298.652 508.934 300.521 508.489 302.39C508.293 302.914 508.098 303.437 507.652 304.587C506.977 306.687 506.552 308.159 506.127 309.632C505.878 310.501 505.629 311.37 505.046 312.748C504.399 314.462 504.085 315.667 503.772 316.873C503.547 317.761 503.322 318.648 502.767 320.128C502.044 322.253 501.652 323.785 501.26 325.317C501.057 325.816 500.855 326.316 500.249 327.3C496.545 335.798 493.244 343.811 489.943 351.825C489.6 352.405 489.258 352.985 488.556 354.13C485.227 360.586 482.256 366.477 479.286 372.368C479.286 372.368 478.89 372.651 478.524 372.981C475.392 377.826 472.627 382.34 469.861 386.854C469.725 387.01 469.59 387.165 469.048 387.692C468.049 389.216 467.458 390.37 466.866 391.524C466.866 391.524 466.991 391.511 466.564 391.504C465.716 392.36 465.296 393.223 464.876 394.087C464.876 394.087 464.524 394.502 464.148 394.864C463.18 396.394 462.589 397.562 461.998 398.73C461.998 398.73 462.139 398.722 461.697 398.69C460.813 399.547 460.372 400.436 459.93 401.325C459.074 402.21 458.218 403.095 456.979 404.455C456.088 405.745 455.581 406.559 455.074 407.374C455.074 407.374 455.032 407.367 454.65 407.499C452.883 409.532 451.498 411.434 450.113 413.335C450.113 413.335 450.21 413.345 449.8 413.386C448.904 414.22 448.417 415.012 447.93 415.805C447.061 416.723 446.193 417.642 444.966 419.089C443.932 420.661 443.258 421.702 442.583 422.744C442.583 422.744 442.742 422.788 442.298 422.692C441.304 423.461 440.756 424.327 440.207 425.193C440.207 425.193 440.356 425.235 439.917 425.146C438.925 425.915 438.373 426.775 437.821 427.634C437.821 427.634 437.964 427.67 437.527 427.591C436.539 428.367 435.989 429.222 435.439 430.078C435.439 430.078 435.576 430.108 435.126 430.038C433.945 430.787 433.213 431.607 432.482 432.426C432.482 432.426 432.032 432.22 431.71 431.918C430.509 431.048 429.629 430.48 428.75 429.912C428.75 429.912 428.685 430.059 428.711 429.633C427.938 428.638 427.139 428.07 426.34 427.502C426.34 427.502 426.274 427.645 426.299 427.219C425.524 426.225 424.726 425.657 423.927 425.089C423.927 425.089 423.861 425.232 423.885 424.806C423.111 423.812 422.312 423.244 421.513 422.676C421.513 422.676 421.448 422.819 421.472 422.393C420.698 421.399 419.899 420.831 419.1 420.263C419.1 420.263 419.041 420.305 419.079 420.29Z" fill="white"/>
	<path d="M300.442 219.35C300.928 250.914 287.475 274.739 261.209 290.21C246.916 298.629 230.821 302.455 213.324 299.591C194.108 296.446 178.222 287.983 165.366 273.97C156.549 264.36 150.985 252.646 148.241 239.759C143.295 216.531 148.279 195.277 162.595 176.718C173.857 162.119 188.461 151.737 207.342 148.935C213.986 147.949 220.777 146.385 227.367 146.881C250.845 148.646 270.232 158.233 284.72 177.564C294.023 189.978 298.678 203.721 300.442 219.35Z" fill="white"/>
</svg>
